<svg xmlns="http://www.w3.org/2000/svg" width="1100" height="520" viewBox="0 0 1100 520" role="img" aria-label="Noisy input image confidently classified as digit 5">
  <defs>
    <filter id="noise" x="0" y="0" width="100%" height="100%">
      <feTurbulence type="fractalNoise" baseFrequency="0.9" numOctaves="4" seed="42"/>
      <feColorMatrix type="saturate" values="0"/>
      <feComponentTransfer>
        <feFuncR type="discrete" tableValues="0 0.15 0.35 0.65 0.9 1"/>
        <feFuncG type="discrete" tableValues="0 0.15 0.35 0.65 0.9 1"/>
        <feFuncB type="discrete" tableValues="0 0.15 0.35 0.65 0.9 1"/>
      </feComponentTransfer>
    </filter>
    <marker id="arrow" markerWidth="12" markerHeight="12" refX="10" refY="6" orient="auto">
      <path d="M 0 0 L 12 6 L 0 12 z" fill="#f5ec35"/>
    </marker>
  </defs>

  <rect width="1100" height="520" fill="#050505"/>

  <rect x="34" y="135" width="220" height="220" fill="#222" stroke="#f5ec35" stroke-width="5"/>
  <rect x="50" y="151" width="188" height="188" filter="url(#noise)"/>
  <text x="144" y="385" fill="#dcdcdc" text-anchor="middle" font-family="Arial, sans-serif" font-size="24">noise input</text>

  <path d="M 150 110 C 250 20, 385 25, 450 115" fill="none" stroke="#f5ec35" stroke-width="5" marker-end="url(#arrow)"/>
  <text x="505" y="253" fill="#ffffff" font-family="Arial, sans-serif" font-size="34">784</text>
  <path d="M 575 85 C 545 120, 545 395, 575 435" fill="none" stroke="#ffffff" stroke-width="4"/>

  <g font-family="Arial, sans-serif" stroke-width="2">
    <g transform="translate(610,92)">
      <circle cx="0" cy="0" r="15" fill="#f4f4f4" stroke="#ffffff"/>
      <circle cx="0" cy="40" r="15" fill="#bdbdbd" stroke="#ffffff"/>
      <circle cx="0" cy="80" r="15" fill="#f4f4f4" stroke="#ffffff"/>
      <circle cx="0" cy="120" r="15" fill="#8f8f8f" stroke="#ffffff"/>
      <circle cx="0" cy="160" r="15" fill="#f4f4f4" stroke="#ffffff"/>
      <text x="0" y="205" fill="#ffffff" text-anchor="middle" font-size="28">...</text>
      <circle cx="0" cy="245" r="15" fill="#6e6e6e" stroke="#ffffff"/>
      <circle cx="0" cy="285" r="15" fill="#f4f4f4" stroke="#ffffff"/>
      <circle cx="0" cy="325" r="15" fill="#bdbdbd" stroke="#ffffff"/>
    </g>

    <g transform="translate(760,122)">
      <circle cx="0" cy="0" r="15" fill="#050505" stroke="#ffffff"/>
      <circle cx="0" cy="46" r="15" fill="#f4f4f4" stroke="#ffffff"/>
      <circle cx="0" cy="92" r="15" fill="#050505" stroke="#ffffff"/>
      <circle cx="0" cy="138" r="15" fill="#f4f4f4" stroke="#ffffff"/>
      <circle cx="0" cy="184" r="15" fill="#050505" stroke="#ffffff"/>
      <circle cx="0" cy="230" r="15" fill="#f4f4f4" stroke="#ffffff"/>
      <circle cx="0" cy="276" r="15" fill="#050505" stroke="#ffffff"/>
    </g>

    <g transform="translate(900,122)">
      <circle cx="0" cy="0" r="15" fill="#050505" stroke="#ffffff"/>
      <circle cx="0" cy="46" r="15" fill="#050505" stroke="#ffffff"/>
      <circle cx="0" cy="92" r="15" fill="#f4f4f4" stroke="#ffffff"/>
      <circle cx="0" cy="138" r="15" fill="#bdbdbd" stroke="#ffffff"/>
      <circle cx="0" cy="184" r="15" fill="#050505" stroke="#ffffff"/>
      <circle cx="0" cy="230" r="15" fill="#f4f4f4" stroke="#ffffff"/>
      <circle cx="0" cy="276" r="15" fill="#bdbdbd" stroke="#ffffff"/>
    </g>
  </g>

  <g stroke-linecap="round" opacity="0.65">
    <path d="M610 92 L760 122 L900 214 L1010 275" stroke="#54c7dd" stroke-width="2"/>
    <path d="M610 132 L760 352 L900 260 L1010 235" stroke="#e46d6d" stroke-width="2"/>
    <path d="M610 172 L760 168 L900 122 L1010 315" stroke="#54c7dd" stroke-width="2"/>
    <path d="M610 212 L760 260 L900 398 L1010 355" stroke="#e46d6d" stroke-width="2"/>
    <path d="M610 252 L760 398 L900 168 L1010 195" stroke="#e46d6d" stroke-width="2"/>
    <path d="M610 337 L760 122 L900 352 L1010 275" stroke="#54c7dd" stroke-width="2"/>
    <path d="M610 377 L760 306 L900 214 L1010 275" stroke="#e46d6d" stroke-width="3"/>
    <path d="M760 122 L900 122 L1010 115" stroke="#54c7dd" stroke-width="2"/>
    <path d="M760 168 L900 398 L1010 435" stroke="#e46d6d" stroke-width="2"/>
    <path d="M760 214 L900 260 L1010 275" stroke="#e46d6d" stroke-width="4"/>
    <path d="M760 260 L900 352 L1010 355" stroke="#54c7dd" stroke-width="2"/>
    <path d="M760 306 L900 168 L1010 155" stroke="#e46d6d" stroke-width="2"/>
    <path d="M760 352 L900 214 L1010 275" stroke="#e46d6d" stroke-width="3"/>
  </g>

  <g font-family="Arial, sans-serif" font-size="24">
    <circle cx="1010" cy="75" r="13" fill="#050505" stroke="#ffffff" stroke-width="2"/>
    <text x="1038" y="84" fill="#ffffff">0</text>
    <circle cx="1010" cy="115" r="13" fill="#050505" stroke="#ffffff" stroke-width="2"/>
    <text x="1038" y="124" fill="#ffffff">1</text>
    <circle cx="1010" cy="155" r="13" fill="#050505" stroke="#ffffff" stroke-width="2"/>
    <text x="1038" y="164" fill="#ffffff">2</text>
    <circle cx="1010" cy="195" r="13" fill="#050505" stroke="#ffffff" stroke-width="2"/>
    <text x="1038" y="204" fill="#ffffff">3</text>
    <circle cx="1010" cy="235" r="13" fill="#050505" stroke="#ffffff" stroke-width="2"/>
    <text x="1038" y="244" fill="#ffffff">4</text>
    <rect x="983" y="257" width="86" height="38" fill="none" stroke="#f5ec35" stroke-width="4"/>
    <circle cx="1010" cy="275" r="15" fill="#f4f4f4" stroke="#ffffff" stroke-width="2"/>
    <text x="1038" y="284" fill="#ffffff">5</text>
    <circle cx="1010" cy="315" r="13" fill="#050505" stroke="#ffffff" stroke-width="2"/>
    <text x="1038" y="324" fill="#ffffff">6</text>
    <circle cx="1010" cy="355" r="13" fill="#050505" stroke="#ffffff" stroke-width="2"/>
    <text x="1038" y="364" fill="#ffffff">7</text>
    <circle cx="1010" cy="395" r="13" fill="#050505" stroke="#ffffff" stroke-width="2"/>
    <text x="1038" y="404" fill="#ffffff">8</text>
    <circle cx="1010" cy="435" r="13" fill="#050505" stroke="#ffffff" stroke-width="2"/>
    <text x="1038" y="444" fill="#ffffff">9</text>
  </g>

  <text x="958" y="475" fill="#f5ec35" font-family="Arial, sans-serif" font-size="28" text-anchor="middle">높은 확신도로 5?</text>
</svg>
